Coordinates
version=1
nRows=4
nColumns=107
inDegrees=yes

Units are S.I. units (second, meters, Newtons, ...)
If the header above contains a line with 'inDegrees', this indicates whether rotational values are in degrees (yes) or radians (no).

endheader
time	sternoclavicular_r2	sternoclavicular_r3	unrotscap_r3	unrotscap_r2	acromioclavicular_r2	acromioclavicular_r3	acromioclavicular_r1	unrothum_r1	unrothum_r3	unrothum_r2	elv_angle	shoulder_elv	shoulder1_r2	shoulder_rot	elbow_flexion	pro_sup	deviation	flexion	proximal_distal_r1	proximal_distal_r3	cmc_flexion	cmc_abduction	mp_flexion	ip_flexion	mcp2_flexion	mcp2_abduction	pm2_flexion	md2_flexion	mcp3_flexion	mcp3_abduction	pm3_flexion	md3_flexion	mcp4_flexion	mcp4_abduction	pm4_flexion	md4_flexion	mcp5_flexion	mcp5_abduction	pm5_flexion	md5_flexion	bicpt_tx	bicpt_ty	bicpt_tz	bicpt2_tx	bicpt2_ty	bicpt2_tz	ptpt_tx	ptpt_ty	ptpt_tz	FCUpt_tx	FCUpt_ty	FCUpt_tz	EDCpt_tx	EDCpt_ty	EDCpt_tz	APLpt_tx	APLpt_ty	APLpt_tz	FPLpt_tx	FPLpt_ty	FPLpt_tz	FPLpt2_tx	FPLpt2_ty	FPLpt2_tz	PEC1pt2_tx	PEC1pt2_ty	PEC1pt2_tz	PEC1pt3_tx	PEC1pt3_ty	PEC1pt3_tz	PEC2pt2_tx	PEC2pt2_ty	PEC2pt2_tz	PEC2pt3_tx	PEC2pt3_ty	PEC2pt3_tz	PEC3pt2_tx	PEC3pt2_ty	PEC3pt2_tz	PEC3pt3_tx	PEC3pt3_ty	PEC3pt3_tz	DELT2pt2a_tx	DELT2pt2a_ty	DELT2pt2a_tz	DELT2pt2_tx	DELT2pt2_ty	DELT2pt2_tz	LAT1pt2_tx	LAT1pt2_ty	LAT1pt2_tz	LAT1pt3_tx	LAT1pt3_ty	LAT1pt3_tz	LAT2pt2_tx	LAT2pt2_ty	LAT2pt2_tz	LAT2pt3_tx	LAT2pt3_ty	LAT2pt3_tz	LAT3pt2_tx	LAT3pt2_ty	LAT3pt2_tz	LAT3pt3_tx	LAT3pt3_ty	LAT3pt3_tz
      0.83333333	     -0.32195198	      0.13636366	     -0.13636366	      0.32195198	     -0.06518873	      0.52683236	      0.23680752	     -0.23680752	     -0.52683236	      0.06518873	     98.89744092	     76.22499235	     -1.72608597	    -20.98535174	     28.76249280	     18.73431437	      0.04929133	     -0.68863030	      0.06490660	     -0.34431515	      3.21663787	      6.53735499	    -33.92943240	    -43.79640294	    -22.63714819	      5.75430942	     18.45174986	    -18.38410171	     53.50921016	      8.34530480	     80.26731037	     63.13132481	     40.62616453	     -6.77100556	     89.73599540	     36.31951143	    -14.87801221	    -12.94423230	    -16.73636993	      4.98011226	      0.00085137	     -0.03089662	     -0.00483100	      0.01601738	     -0.01801347	     -0.00942314	      0.00616575	     -0.06579508	     -0.00155915	      0.00570902	     -0.18387324	     -0.00006517	     -0.00224811	      0.00058497	      0.00017654	      0.00030744	      0.00012297	      0.00061487	      0.00039352	      0.00118055	      0.00066406	      0.00004228	     -0.00007467	     -0.00008960	      0.00249849	      0.00876588	      0.00609800	     -0.00817302	      0.01973382	     -0.01871749	      0.00249849	      0.00876588	      0.00609800	      0.00055051	      0.01829401	     -0.00961283	      0.00395014	      0.00487460	      0.01597301	      0.00000000	      0.00777050	      0.00000000	     -0.00715669	     -0.03307321	     -0.00640708	      0.01433836	     -0.00046239	     -0.00364785	     -0.00088929	      0.01490623	     -0.00609800	      0.00245614	      0.02151240	     -0.01778585	     -0.00597096	      0.01291591	     -0.00546280	     -0.01245009	      0.02727163	     -0.03053237	     -0.02337568	      0.01444041	     -0.00732607	     -0.01549909	      0.03150636	     -0.03815488
      0.86666667	     -0.32258646	      0.13663240	     -0.13663240	      0.32258646	     -0.06531720	      0.52787061	      0.23727421	     -0.23727421	     -0.52787061	      0.06531720	     98.78853618	     76.37521231	     -1.72418522	    -20.47066076	     28.83194100	     19.29471283	      0.06948160	     -0.64314392	      0.09034488	     -0.32157196	      3.72155885	      5.79318554	    -34.28061987	    -44.31785237	    -22.85243215	      5.58983676	     19.34841191	    -19.33605445	     53.66258660	      8.69871908	     80.64756155	     63.12808323	     41.06573553	     -6.33835907	     89.58281512	     37.51671326	    -14.38709987	    -12.89654309	    -16.49964070	      4.95724835	      0.00085367	     -0.03090458	     -0.00483228	      0.01604535	     -0.01803234	     -0.00937981	      0.00612434	     -0.06582186	     -0.00160429	      0.00576181	     -0.18386492	     -0.00007801	     -0.00231536	      0.00060413	      0.00017889	      0.00031163	      0.00012465	      0.00062327	      0.00039889	      0.00119667	      0.00067313	      0.00004238	     -0.00008535	     -0.00010242	      0.00250341	      0.00878316	      0.00611002	     -0.00818913	      0.01977271	     -0.01875437	      0.00250341	      0.00878316	      0.00611002	      0.00055160	      0.01833007	     -0.00963177	      0.00395581	      0.00488420	      0.01598686	      0.00000000	      0.00780137	      0.00000000	     -0.00717079	     -0.03313838	     -0.00643271	      0.01404638	     -0.00044644	     -0.00346330	     -0.00089104	      0.01493561	     -0.00611002	      0.00246098	      0.02155480	     -0.01782090	     -0.00598273	      0.01294137	     -0.00547356	     -0.01247463	      0.02732538	     -0.03059254	     -0.02342175	      0.01446887	     -0.00734051	     -0.01552964	      0.03156845	     -0.03823007
      0.90000000	     -0.32075616	      0.13585717	     -0.13585717	      0.32075616	     -0.06494660	      0.52487556	      0.23592795	     -0.23592795	     -0.52487556	      0.06494660	     99.16929763	     75.94187184	     -1.73083076	    -22.58013376	     28.79244373	     20.73863866	      0.04356353	     -0.67249654	      0.05756849	     -0.33624827	      3.43065493	      6.62246659	    -33.85018238	    -44.17307521	    -22.38703747	      5.66126098	     18.76894178	    -17.27706942	     53.77589725	      8.26492131	     80.51386959	     63.29755519	     41.03533813	     -6.92690895	     89.81477341	     36.21664234	    -14.21617210	    -12.90662208	    -16.67475326	      4.97231733	      0.00085236	     -0.03090005	     -0.00483155	      0.01611404	     -0.01802161	     -0.00926612	      0.00601765	     -0.06589084	     -0.00172061	      0.00589828	     -0.18384307	     -0.00010999	     -0.00248863	      0.00065397	      0.00018416	      0.00030932	      0.00012373	      0.00061864	      0.00039593	      0.00118778	      0.00066813	      0.00004244	     -0.00007923	     -0.00009507	      0.00248921	      0.00873332	      0.00607535	     -0.00814266	      0.01966052	     -0.01864796	      0.00248921	      0.00873332	      0.00607535	      0.00054847	      0.01822606	     -0.00957712	      0.00393941	      0.00485649	      0.01594675	      0.00000000	      0.00771248	      0.00000000	     -0.00713010	     -0.03295036	     -0.00635891	      0.01522061	     -0.00051247	     -0.00424540	     -0.00088599	      0.01485087	     -0.00607535	      0.00244702	      0.02143250	     -0.01771979	     -0.00594878	      0.01286794	     -0.00544251	     -0.01240385	      0.02717034	     -0.03041896	     -0.02328886	      0.01438678	     -0.00729886	     -0.01544153	      0.03138933	     -0.03801316
      0.93333333	     -0.31980074	      0.13545250	     -0.13545250	      0.31980074	     -0.06475314	      0.52331214	      0.23522520	     -0.23522520	     -0.52331214	      0.06475314	     99.41844626	     75.71566776	     -1.73517922	    -23.76256360	     28.83119949	     21.91459721	      0.04245291	     -0.66003745	      0.05614040	     -0.33001872	      3.14679938	      6.01226542	    -34.25501226	    -44.56516846	    -21.79436265	      5.61453409	     18.94251922	    -16.70884488	     53.85955574	      8.02971766	     80.63279860	     63.26374576	     40.97958338	     -6.96750056	     90.08772692	     36.60366357	    -14.37311386	    -12.91807048	    -16.64112761	      4.97376294	      0.00085365	     -0.03090450	     -0.00483227	      0.01616649	     -0.01803214	     -0.00917138	      0.00593076	     -0.06594703	     -0.00181534	      0.00600990	     -0.18382485	     -0.00013488	     -0.00262975	      0.00069502	      0.00018762	      0.00031048	      0.00012419	      0.00062096	      0.00039742	      0.00119225	      0.00067064	      0.00004220	     -0.00007317	     -0.00008780	      0.00248179	      0.00870731	      0.00605726	     -0.00811841	      0.01960196	     -0.01859242	      0.00248179	      0.00870731	      0.00605726	      0.00054684	      0.01817178	     -0.00954860	      0.00393082	      0.00484202	      0.01592563	      0.00000000	      0.00766629	      0.00000000	     -0.00710887	     -0.03285221	     -0.00632056	      0.01585278	     -0.00055021	     -0.00471292	     -0.00088335	      0.01480663	     -0.00605726	      0.00243973	      0.02136866	     -0.01766700	     -0.00593107	      0.01282961	     -0.00542629	     -0.01236690	      0.02708941	     -0.03032836	     -0.02321949	      0.01434392	     -0.00727712	     -0.01539553	      0.03129584	     -0.03789993
